<mxfile host="app.diagrams.net" modified="2023-10-17T06:30:18.628Z" agent="Mozilla/5.0 (Windows NT 10.0; Win64; x64) AppleWebKit/537.36 (KHTML, like Gecko) Chrome/116.0.0.0 Safari/537.36 OPR/102.0.0.0 (Edition Yx GX)" etag="gM_gQIdWkc5bBdA3sxhA" version="22.0.4" type="github">
  <diagram name="Страница — 1" id="QMA_2jUnTVpJS-hlxXxg">
    <mxGraphModel dx="1009" dy="542" grid="1" gridSize="10" guides="1" tooltips="1" connect="1" arrows="1" fold="1" page="1" pageScale="1" pageWidth="827" pageHeight="1169" math="0" shadow="0">
      <root>
        <mxCell id="0" />
        <mxCell id="1" parent="0" />
        <mxCell id="xfARgfbvgpaPZORjd9G8-1" value="Пользователь" style="shape=umlActor;verticalLabelPosition=bottom;verticalAlign=top;html=1;outlineConnect=0;" vertex="1" parent="1">
          <mxGeometry x="190" y="240" width="30" height="60" as="geometry" />
        </mxCell>
        <mxCell id="xfARgfbvgpaPZORjd9G8-2" value="Админ" style="shape=umlActor;verticalLabelPosition=bottom;verticalAlign=top;html=1;outlineConnect=0;" vertex="1" parent="1">
          <mxGeometry x="540" y="240" width="30" height="60" as="geometry" />
        </mxCell>
        <mxCell id="xfARgfbvgpaPZORjd9G8-6" value="Войти в уч. запись" style="ellipse;whiteSpace=wrap;html=1;" vertex="1" parent="1">
          <mxGeometry x="330" y="200" width="105" height="60" as="geometry" />
        </mxCell>
        <mxCell id="xfARgfbvgpaPZORjd9G8-11" value="" style="endArrow=none;html=1;rounded=0;exitX=0.5;exitY=0.5;exitDx=0;exitDy=0;exitPerimeter=0;entryX=0;entryY=0.5;entryDx=0;entryDy=0;" edge="1" parent="1" source="xfARgfbvgpaPZORjd9G8-1" target="xfARgfbvgpaPZORjd9G8-6">
          <mxGeometry width="50" height="50" relative="1" as="geometry">
            <mxPoint x="390" y="310" as="sourcePoint" />
            <mxPoint x="440" y="260" as="targetPoint" />
            <Array as="points">
              <mxPoint x="250" y="230" />
            </Array>
          </mxGeometry>
        </mxCell>
        <mxCell id="xfARgfbvgpaPZORjd9G8-12" value="" style="endArrow=none;html=1;rounded=0;entryX=1;entryY=0.5;entryDx=0;entryDy=0;exitX=0.5;exitY=0.5;exitDx=0;exitDy=0;exitPerimeter=0;" edge="1" parent="1" source="xfARgfbvgpaPZORjd9G8-2" target="xfARgfbvgpaPZORjd9G8-6">
          <mxGeometry width="50" height="50" relative="1" as="geometry">
            <mxPoint x="420" y="340" as="sourcePoint" />
            <mxPoint x="470" y="290" as="targetPoint" />
            <Array as="points">
              <mxPoint x="520" y="230" />
            </Array>
          </mxGeometry>
        </mxCell>
        <mxCell id="xfARgfbvgpaPZORjd9G8-13" value="Регистрация" style="ellipse;whiteSpace=wrap;html=1;" vertex="1" parent="1">
          <mxGeometry x="335" y="130" width="95" height="50" as="geometry" />
        </mxCell>
        <mxCell id="xfARgfbvgpaPZORjd9G8-14" value="" style="endArrow=none;html=1;rounded=0;entryX=0;entryY=0.5;entryDx=0;entryDy=0;exitX=0.5;exitY=0.5;exitDx=0;exitDy=0;exitPerimeter=0;" edge="1" parent="1" source="xfARgfbvgpaPZORjd9G8-1" target="xfARgfbvgpaPZORjd9G8-13">
          <mxGeometry width="50" height="50" relative="1" as="geometry">
            <mxPoint x="130" y="250" as="sourcePoint" />
            <mxPoint x="180" y="200" as="targetPoint" />
            <Array as="points">
              <mxPoint x="250" y="155" />
            </Array>
          </mxGeometry>
        </mxCell>
        <mxCell id="xfARgfbvgpaPZORjd9G8-15" value="Выбор услуги" style="ellipse;whiteSpace=wrap;html=1;" vertex="1" parent="1">
          <mxGeometry x="120" y="90" width="90" height="50" as="geometry" />
        </mxCell>
        <mxCell id="xfARgfbvgpaPZORjd9G8-16" value="Выбрать кредит" style="ellipse;whiteSpace=wrap;html=1;" vertex="1" parent="1">
          <mxGeometry x="20" y="80" width="90" height="50" as="geometry" />
        </mxCell>
        <mxCell id="xfARgfbvgpaPZORjd9G8-18" style="edgeStyle=orthogonalEdgeStyle;rounded=0;orthogonalLoop=1;jettySize=auto;html=1;entryX=1;entryY=0;entryDx=0;entryDy=0;strokeColor=default;dashed=1;" edge="1" parent="1" source="xfARgfbvgpaPZORjd9G8-17" target="xfARgfbvgpaPZORjd9G8-15">
          <mxGeometry relative="1" as="geometry" />
        </mxCell>
        <mxCell id="xfARgfbvgpaPZORjd9G8-17" value="Выбрать ипотеку" style="ellipse;whiteSpace=wrap;html=1;" vertex="1" parent="1">
          <mxGeometry x="310" y="40" width="75" height="50" as="geometry" />
        </mxCell>
        <mxCell id="xfARgfbvgpaPZORjd9G8-19" style="edgeStyle=orthogonalEdgeStyle;rounded=0;orthogonalLoop=1;jettySize=auto;html=1;strokeColor=default;dashed=1;exitX=0.5;exitY=0;exitDx=0;exitDy=0;" edge="1" parent="1" source="xfARgfbvgpaPZORjd9G8-16">
          <mxGeometry relative="1" as="geometry">
            <mxPoint x="140" y="210" as="sourcePoint" />
            <mxPoint x="165" y="90" as="targetPoint" />
            <Array as="points">
              <mxPoint x="65" y="60" />
              <mxPoint x="165" y="60" />
            </Array>
          </mxGeometry>
        </mxCell>
        <mxCell id="xfARgfbvgpaPZORjd9G8-20" value="" style="endArrow=none;html=1;rounded=0;entryX=0.5;entryY=1;entryDx=0;entryDy=0;exitX=0.5;exitY=0.5;exitDx=0;exitDy=0;exitPerimeter=0;" edge="1" parent="1" source="xfARgfbvgpaPZORjd9G8-1" target="xfARgfbvgpaPZORjd9G8-15">
          <mxGeometry width="50" height="50" relative="1" as="geometry">
            <mxPoint x="140" y="240" as="sourcePoint" />
            <mxPoint x="190" y="190" as="targetPoint" />
          </mxGeometry>
        </mxCell>
        <mxCell id="xfARgfbvgpaPZORjd9G8-21" value="Редактирование базы данных" style="ellipse;whiteSpace=wrap;html=1;" vertex="1" parent="1">
          <mxGeometry x="560" y="150" width="110" height="60" as="geometry" />
        </mxCell>
        <mxCell id="xfARgfbvgpaPZORjd9G8-22" value="" style="endArrow=none;html=1;rounded=0;entryX=0.5;entryY=1;entryDx=0;entryDy=0;exitX=0.5;exitY=0.5;exitDx=0;exitDy=0;exitPerimeter=0;" edge="1" parent="1" source="xfARgfbvgpaPZORjd9G8-2" target="xfARgfbvgpaPZORjd9G8-21">
          <mxGeometry width="50" height="50" relative="1" as="geometry">
            <mxPoint x="650" y="300" as="sourcePoint" />
            <mxPoint x="700" y="250" as="targetPoint" />
          </mxGeometry>
        </mxCell>
        <mxCell id="xfARgfbvgpaPZORjd9G8-26" style="edgeStyle=orthogonalEdgeStyle;rounded=0;orthogonalLoop=1;jettySize=auto;html=1;entryX=1;entryY=0.5;entryDx=0;entryDy=0;dashed=1;" edge="1" parent="1" source="xfARgfbvgpaPZORjd9G8-23" target="xfARgfbvgpaPZORjd9G8-21">
          <mxGeometry relative="1" as="geometry" />
        </mxCell>
        <mxCell id="xfARgfbvgpaPZORjd9G8-23" value="Изменить данные" style="ellipse;whiteSpace=wrap;html=1;" vertex="1" parent="1">
          <mxGeometry x="710" y="130" width="75" height="50" as="geometry" />
        </mxCell>
        <mxCell id="xfARgfbvgpaPZORjd9G8-25" style="edgeStyle=orthogonalEdgeStyle;rounded=0;orthogonalLoop=1;jettySize=auto;html=1;entryX=0.5;entryY=0;entryDx=0;entryDy=0;dashed=1;" edge="1" parent="1" source="xfARgfbvgpaPZORjd9G8-24" target="xfARgfbvgpaPZORjd9G8-21">
          <mxGeometry relative="1" as="geometry" />
        </mxCell>
        <mxCell id="xfARgfbvgpaPZORjd9G8-24" value="Удалить данные" style="ellipse;whiteSpace=wrap;html=1;" vertex="1" parent="1">
          <mxGeometry x="577.5" y="60" width="75" height="50" as="geometry" />
        </mxCell>
        <mxCell id="xfARgfbvgpaPZORjd9G8-28" style="edgeStyle=orthogonalEdgeStyle;rounded=0;orthogonalLoop=1;jettySize=auto;html=1;entryX=1;entryY=1;entryDx=0;entryDy=0;dashed=1;" edge="1" parent="1" source="xfARgfbvgpaPZORjd9G8-27" target="xfARgfbvgpaPZORjd9G8-21">
          <mxGeometry relative="1" as="geometry" />
        </mxCell>
        <mxCell id="xfARgfbvgpaPZORjd9G8-27" value="Добавление данных" style="ellipse;whiteSpace=wrap;html=1;" vertex="1" parent="1">
          <mxGeometry x="710" y="230" width="75" height="50" as="geometry" />
        </mxCell>
      </root>
    </mxGraphModel>
  </diagram>
</mxfile>
